<svg width="20" height="20" viewBox="0 0 20 20" fill="none" xmlns="http://www.w3.org/2000/svg">
<path d="M8.30657 1.08629L9.39557 1.51529C9.78403 1.66823 10.216 1.66823 10.6045 1.51529L11.6935 1.08629C12.3346 0.834156 13.0485 0.840587 13.6849 1.10423C14.3214 1.36788 14.8307 1.86817 15.1057 2.49979L15.5721 3.57229C15.7386 3.95505 16.044 4.26046 16.4268 4.42699L17.4993 4.89339C18.1312 5.16839 18.6317 5.6779 18.8953 6.3146C19.159 6.95129 19.1652 7.66547 18.9128 8.30669L18.4838 9.39569C18.3311 9.78382 18.3311 10.2154 18.4838 10.6035L18.9128 11.6925C19.1649 12.3336 19.1585 13.0475 18.8948 13.6839C18.6312 14.3204 18.1309 14.8297 17.4993 15.1047L16.4268 15.5711C16.044 15.7375 15.7385 16.043 15.5721 16.4258L15.1057 17.4983C14.8307 18.1302 14.3212 18.6307 13.6845 18.8943C13.0478 19.158 12.3336 19.1643 11.6924 18.9118L10.6034 18.4828C10.2152 18.3301 9.7837 18.3301 9.39557 18.4828L8.30657 18.9118C7.66548 19.1639 6.95157 19.1575 6.31513 18.8939C5.67869 18.6302 5.16936 18.1299 4.89437 17.4983L4.42797 16.4258C4.26144 16.043 3.95603 15.7376 3.57327 15.5711L2.50077 15.1047C1.86888 14.8297 1.36839 14.3202 1.10472 13.6835C0.841057 13.0468 0.8348 12.3326 1.08727 11.6914L1.51627 10.6024C1.66892 10.2143 1.66892 9.78272 1.51627 9.39459L1.08727 8.30559C0.835133 7.66451 0.841564 6.9506 1.10521 6.31415C1.36885 5.67771 1.86915 5.16839 2.50077 4.89339L3.57327 4.42699C3.95603 4.26046 4.26144 3.95505 4.42797 3.57229L4.89437 2.49979C5.16936 1.86791 5.67887 1.36741 6.31557 1.10375C6.95227 0.840081 7.66645 0.833824 8.30767 1.08629H8.30657ZM12.0961 2.10929L11.0071 2.53829C10.3599 2.79299 9.64018 2.79299 8.99297 2.53829L7.90397 2.10929C7.52797 1.9615 7.1093 1.96536 6.73609 2.12006C6.36288 2.27476 6.06425 2.56824 5.90307 2.93869L5.43667 4.01119C5.15911 4.64912 4.65009 5.15814 4.01217 5.43569L2.93967 5.90209C2.56914 6.06348 2.27572 6.36237 2.12121 6.73582C1.96671 7.10926 1.96318 7.5281 2.11137 7.90409L2.53927 8.99199C2.79397 9.6392 2.79397 10.3589 2.53927 11.0061L2.11027 12.0951C1.80337 12.8761 2.16967 13.7605 2.93967 14.096L4.01217 14.5624C4.65009 14.84 5.15911 15.349 5.43667 15.9869L5.90307 17.0594C6.06445 17.4299 6.36335 17.7233 6.73679 17.8779C7.11024 18.0324 7.52908 18.0359 7.90507 17.8877L8.99297 17.4587C9.64018 17.204 10.3599 17.204 11.0071 17.4587L12.0961 17.8877C12.8771 18.1957 13.7615 17.8294 14.097 17.0594L14.5634 15.9869C14.8409 15.349 15.3499 14.84 15.9879 14.5624L17.0604 14.096C17.4309 13.9346 17.7243 13.6357 17.8788 13.2623C18.0333 12.8888 18.0369 12.47 17.8887 12.094L17.4597 11.0061C17.205 10.3589 17.205 9.6392 17.4597 8.99199L17.8887 7.90299C18.0365 7.52713 18.0328 7.10857 17.8783 6.73538C17.7239 6.36219 17.4306 6.06347 17.0604 5.90209L15.9879 5.43569C15.3499 5.15814 14.8409 4.64912 14.5634 4.01119L14.097 2.93869C13.9356 2.56817 13.6367 2.27474 13.2632 2.12024C12.8898 1.96573 12.471 1.9622 12.095 2.11039L12.0961 2.10929ZM8.87637 11.9477L12.8892 7.43329C12.9807 7.33197 13.1067 7.26834 13.2426 7.25478C13.3785 7.24123 13.5146 7.27872 13.6244 7.35995C13.7342 7.44119 13.8098 7.56037 13.8366 7.69429C13.8633 7.82821 13.8393 7.9673 13.7692 8.08449L13.7109 8.16479L9.31087 13.1148C9.22208 13.2146 9.1 13.2787 8.96741 13.2951C8.83482 13.3115 8.7008 13.2791 8.59037 13.2039L8.51117 13.1379L6.31117 10.9379C6.21373 10.8409 6.15616 10.7109 6.1498 10.5735C6.14344 10.4362 6.18876 10.3014 6.27682 10.1959C6.36489 10.0903 6.48931 10.0215 6.62557 10.0031C6.76183 9.98466 6.90004 10.018 7.01297 10.0964L7.08887 10.1602L8.87637 11.9477Z" fill="white"/>
</svg>
